<?xml version="1.0" encoding="UTF-8" standalone="no"?>
<!DOCTYPE svg PUBLIC "-//W3C//DTD SVG 1.1//EN"
 "http://www.w3.org/Graphics/SVG/1.1/DTD/svg11.dtd">
<!-- Generated by graphviz version 2.38.0 (20140413.2041)
 -->
<!-- Title: Binder flow diagram Pages: 1 -->
<svg width="372pt" height="434pt"
 viewBox="0.00 0.00 372.44 434.10" xmlns="http://www.w3.org/2000/svg" xmlns:xlink="http://www.w3.org/1999/xlink">
<g id="graph0" class="graph" transform="scale(1 1) rotate(0) translate(-4 438.1)">
<title>Binder flow diagram</title>
<polygon fill="white" stroke="none" points="4,-4 4,-438.1 376.437,-438.1 376.437,-4 4,-4"/>
<g id="clust1" class="cluster"><title>cluster0</title>
<polygon fill="none" stroke="black" points="8,-8 8,-84.099 261,-84.099 261,-8 8,-8"/>
<text text-anchor="middle" x="134.5" y="-68.8983" font-family="Arial" font-size="14.00">External Services</text>
</g>
<!-- jhub -->
<g id="node1" class="node"><title>jhub</title>
<polygon fill="#7bbeca" stroke="none" points="104,-52 16,-52 16,-16 104,-16 104,-52"/>
<text text-anchor="middle" x="60" y="-30.8493" font-family="Arial" font-size="14.00">JupyterHub</text>
</g>
<!-- gcr -->
<g id="node2" class="node"><title>gcr</title>
<polygon fill="#7bbeca" stroke="none" points="252.658,-52 121.342,-52 121.342,-16 252.658,-16 252.658,-52"/>
<text text-anchor="middle" x="187" y="-30.8493" font-family="Arial" font-size="14.00">gcr.io / DockerHub</text>
</g>
<!-- bhub -->
<g id="node3" class="node"><title>bhub</title>
<polygon fill="#7bbeca" stroke="none" points="133.152,-344.1 50.8485,-344.1 50.8485,-308.1 133.152,-308.1 133.152,-344.1"/>
<text text-anchor="middle" x="92" y="-322.949" font-family="Arial" font-size="14.00">BinderHub</text>
</g>
<!-- bhub&#45;&gt;jhub -->
<g id="edge1" class="edge"><title>bhub&#45;&gt;jhub</title>
<path fill="none" stroke="black" d="M85.419,-308.04C76.638,-284.28 61.548,-239.68 55.955,-200.1 49.179,-152.15 53.106,-95.6 56.561,-62.675"/>
<polygon fill="black" stroke="black" points="60.0701,-62.7871 57.699,-52.461 53.1131,-62.0119 60.0701,-62.7871"/>
<text text-anchor="start" x="55.9975" y="-193.9" font-family="Arial" font-style="italic" font-size="9.00">SEND image registry information</text>
<text text-anchor="start" x="55.9975" y="-184.9" font-family="Arial" font-style="italic" font-size="9.00">REDIRECT user interface to</text>
</g>
<!-- build -->
<g id="node4" class="node"><title>build</title>
<polygon fill="#7bbeca" stroke="none" points="233.876,-254.1 142.124,-254.1 142.124,-218.1 233.876,-218.1 233.876,-254.1"/>
<text text-anchor="start" x="150.312" y="-238" font-family="Arial" font-size="12.00">Build Machine</text>
<text text-anchor="start" x="155.494" y="-228.4" font-family="Arial" font-style="italic" font-size="9.00">(s2i / Dockerfile)</text>
</g>
<!-- bhub&#45;&gt;build -->
<g id="edge2" class="edge"><title>bhub&#45;&gt;build</title>
<path fill="none" stroke="black" d="M87.658,-307.8C85.895,-296.62 85.715,-282.3 92.967,-272.1 102.24,-259.05 116.94,-250.86 132.04,-245.72"/>
<polygon fill="black" stroke="black" points="133.378,-248.973 141.96,-242.76 131.377,-242.265 133.378,-248.973"/>
<text text-anchor="start" x="93.0036" y="-283.9" font-family="Arial" font-style="italic" font-size="9.00">SEND repo name,</text>
<text text-anchor="start" x="93.0036" y="-274.9" font-family="Arial" font-style="italic" font-size="9.00">branch</text>
</g>
<!-- build&#45;&gt;bhub -->
<g id="edge3" class="edge"><title>build&#45;&gt;bhub</title>
<path fill="none" stroke="black" d="M184.33,-254.16C181.14,-265.52 175.48,-280.14 166,-290.1 159.31,-297.12 150.92,-302.89 142.22,-307.57"/>
<polygon fill="black" stroke="black" points="140.512,-304.51 133.09,-312.07 143.607,-310.788 140.512,-304.51"/>
<text text-anchor="start" x="177.001" y="-280.075" font-family="Arial" font-style="italic" font-size="9.00">RETURN image registry information</text>
</g>
<!-- image -->
<g id="node5" class="node"><title>image</title>
<polygon fill="#ff6347" stroke="none" points="248.645,-164.1 145.355,-164.1 145.355,-128.1 248.645,-128.1 248.645,-164.1"/>
<text text-anchor="middle" x="197" y="-142.949" font-family="Arial" font-size="14.00">Docker Image</text>
</g>
<!-- build&#45;&gt;image -->
<g id="edge4" class="edge"><title>build&#45;&gt;image</title>
<path fill="none" stroke="black" d="M189.78,-217.71C191.04,-205.34 192.77,-188.47 194.22,-174.32"/>
<polygon fill="black" stroke="black" points="197.724,-174.454 195.26,-164.15 190.761,-173.742 197.724,-174.454"/>
<text text-anchor="start" x="193.003" y="-193.9" font-family="Arial" font-style="italic" font-size="9.00">IF image not already registered, or diff found:</text>
<text text-anchor="start" x="193.003" y="-184.9" font-family="Arial" font-style="italic" font-size="9.00">BUILD a</text>
</g>
<!-- image&#45;&gt;gcr -->
<g id="edge5" class="edge"><title>image&#45;&gt;gcr</title>
<path fill="none" stroke="black" d="M195.44,-127.9C193.84,-110.28 191.33,-82.65 189.46,-62.095"/>
<polygon fill="black" stroke="black" points="192.941,-61.7241 188.55,-52.082 185.97,-62.3578 192.941,-61.7241"/>
<text text-anchor="start" x="193.004" y="-103.9" font-family="Arial" font-style="italic" font-size="9.00">REGISTERED and SENT to</text>
<text text-anchor="start" x="193.004" y="-94.9" font-family="Arial" font-style="italic" font-size="9.00">online repository</text>
</g>
<!-- user -->
<g id="node6" class="node"><title>user</title>
<polygon fill="#7bbeca" stroke="none" points="144,-434.1 40,-434.1 40,-398.1 144,-398.1 144,-434.1"/>
<text text-anchor="middle" x="92" y="-412.949" font-family="Arial" font-size="14.00">User Interface</text>
</g>
<!-- user&#45;&gt;bhub -->
<g id="edge6" class="edge"><title>user&#45;&gt;bhub</title>
<path fill="none" stroke="black" d="M92,-397.71C92,-385.34 92,-368.47 92,-354.32"/>
<polygon fill="black" stroke="black" points="95.5001,-354.15 92,-344.15 88.5001,-354.15 95.5001,-354.15"/>
<text text-anchor="start" x="92.0005" y="-373.9" font-family="Arial" font-style="italic" font-size="9.00">SEND repo,</text>
<text text-anchor="start" x="92.0005" y="-364.9" font-family="Arial" font-style="italic" font-size="9.00">branch, file</text>
</g>
</g>
</svg>
