<?xml version="1.0" encoding="UTF-8" standalone="no"?>
<!DOCTYPE svg PUBLIC "-//W3C//DTD SVG 1.1//EN"
 "http://www.w3.org/Graphics/SVG/1.1/DTD/svg11.dtd">
<!-- Generated by graphviz version 2.38.0 (20140413.2041)
 -->
<!-- Title: Binder flow diagram Pages: 1 -->
<svg width="307pt" height="434pt"
 viewBox="0.00 0.00 306.54 434.10" xmlns="http://www.w3.org/2000/svg" xmlns:xlink="http://www.w3.org/1999/xlink">
<g id="graph0" class="graph" transform="scale(1 1) rotate(0) translate(-4 438.1)">
<title>Binder flow diagram</title>
<polygon fill="white" stroke="none" points="4,-4 4,-438.1 310.543,-438.1 310.543,-4 4,-4"/>
<g id="clust1" class="cluster"><title>cluster0</title>
<polygon fill="none" stroke="black" points="8,-8 8,-84.099 236,-84.099 236,-8 8,-8"/>
<text text-anchor="middle" x="122" y="-68.8983" font-family="Arial" font-size="14.00">External Projects</text>
</g>
<!-- jhub -->
<g id="node1" class="node"><title>jhub</title>
<polygon fill="#7bbeca" stroke="none" points="104,-52 16,-52 16,-16 104,-16 104,-52"/>
<text text-anchor="middle" x="60" y="-30.8493" font-family="Arial" font-size="14.00">JupyterHub</text>
</g>
<!-- gcr -->
<g id="node2" class="node"><title>gcr</title>
<polygon fill="#7bbeca" stroke="none" points="227.977,-52 122.023,-52 122.023,-16 227.977,-16 227.977,-52"/>
<text text-anchor="middle" x="175" y="-30.8493" font-family="Arial" font-size="14.00">gcr.io / Docker</text>
</g>
<!-- bhub -->
<g id="node3" class="node"><title>bhub</title>
<polygon fill="#ff6347" stroke="none" points="128.762,-344.1 43.2379,-344.1 43.2379,-308.1 128.762,-308.1 128.762,-344.1"/>
<text text-anchor="middle" x="86" y="-322.949" font-family="Arial" font-size="14.00">BuilderHub</text>
</g>
<!-- bhub&#45;&gt;jhub -->
<g id="edge1" class="edge"><title>bhub&#45;&gt;jhub</title>
<path fill="none" stroke="black" d="M81.524,-307.75C80.217,-302.15 78.899,-295.89 78,-290.1 65.224,-207.85 61.507,-109.26 60.432,-62.372"/>
<polygon fill="black" stroke="black" points="63.9263,-62.0531 60.222,-52.127 56.9278,-62.1967 63.9263,-62.0531"/>
<text text-anchor="start" x="68.0039" y="-190.075" font-family="Arial" font-style="italic" font-size="9.00"> SEND registry information</text>
</g>
<!-- build -->
<g id="node4" class="node"><title>build</title>
<polygon fill="#ff6347" stroke="none" points="210,-254.1 156,-254.1 156,-218.1 210,-218.1 210,-254.1"/>
<text text-anchor="middle" x="183" y="-232.949" font-family="Arial" font-size="14.00">Build</text>
</g>
<!-- bhub&#45;&gt;build -->
<g id="edge2" class="edge"><title>bhub&#45;&gt;build</title>
<path fill="none" stroke="black" d="M81.846,-307.78C80.199,-296.58 80.156,-282.26 87.467,-272.1 100.79,-253.58 124.99,-244.84 145.7,-240.72"/>
<polygon fill="black" stroke="black" points="146.552,-244.126 155.83,-239.01 145.387,-237.223 146.552,-244.126"/>
<text text-anchor="start" x="88.0034" y="-283.9" font-family="Arial" font-style="italic" font-size="9.00"> SEND repo name,</text>
<text text-anchor="start" x="88.0034" y="-274.9" font-family="Arial" font-style="italic" font-size="9.00">branch</text>
</g>
<!-- build&#45;&gt;bhub -->
<g id="edge3" class="edge"><title>build&#45;&gt;bhub</title>
<path fill="none" stroke="black" d="M180.08,-254.18C177.36,-265.56 172.28,-280.19 163,-290.1 156.08,-297.49 147.29,-303.45 138.15,-308.2"/>
<polygon fill="black" stroke="black" points="136.494,-305.111 128.95,-312.55 139.486,-311.44 136.494,-305.111"/>
<text text-anchor="start" x="172.997" y="-280.075" font-family="Arial" font-style="italic" font-size="9.00"> SEND image registry information</text>
</g>
<!-- image -->
<g id="node5" class="node"><title>image</title>
<polygon fill="#ff6347" stroke="none" points="232.645,-164.1 129.355,-164.1 129.355,-128.1 232.645,-128.1 232.645,-164.1"/>
<text text-anchor="middle" x="181" y="-142.949" font-family="Arial" font-size="14.00">Docker Image</text>
</g>
<!-- build&#45;&gt;image -->
<g id="edge4" class="edge"><title>build&#45;&gt;image</title>
<path fill="none" stroke="black" d="M182.6,-217.71C182.32,-205.34 181.94,-188.47 181.62,-174.32"/>
<polygon fill="black" stroke="black" points="185.115,-174.068 181.39,-164.15 178.117,-174.227 185.115,-174.068"/>
<text text-anchor="start" x="181.998" y="-193.9" font-family="Arial" font-style="italic" font-size="9.00"> USE s2i / Dockerfile</text>
<text text-anchor="start" x="181.998" y="-184.9" font-family="Arial" font-style="italic" font-size="9.00">to build image</text>
</g>
<!-- image&#45;&gt;gcr -->
<g id="edge5" class="edge"><title>image&#45;&gt;gcr</title>
<path fill="none" stroke="black" d="M180.06,-127.9C179.1,-110.28 177.6,-82.65 176.48,-62.095"/>
<polygon fill="black" stroke="black" points="179.973,-61.875 175.93,-52.082 172.984,-62.2589 179.973,-61.875"/>
<text text-anchor="start" x="178.998" y="-103.9" font-family="Arial" font-style="italic" font-size="9.00"> SEND image to</text>
<text text-anchor="start" x="178.998" y="-94.9" font-family="Arial" font-style="italic" font-size="9.00">registry</text>
</g>
<!-- user -->
<g id="node6" class="node"><title>user</title>
<polygon fill="#ff6347" stroke="none" points="138,-434.1 34,-434.1 34,-398.1 138,-398.1 138,-434.1"/>
<text text-anchor="middle" x="86" y="-412.949" font-family="Arial" font-size="14.00">User Interface</text>
</g>
<!-- user&#45;&gt;bhub -->
<g id="edge6" class="edge"><title>user&#45;&gt;bhub</title>
<path fill="none" stroke="black" d="M86,-397.71C86,-385.34 86,-368.47 86,-354.32"/>
<polygon fill="black" stroke="black" points="89.5001,-354.15 86,-344.15 82.5001,-354.15 89.5001,-354.15"/>
<text text-anchor="start" x="86.0002" y="-373.9" font-family="Arial" font-style="italic" font-size="9.00"> SEND repo,</text>
<text text-anchor="start" x="86.0002" y="-364.9" font-family="Arial" font-style="italic" font-size="9.00">branch, file</text>
</g>
</g>
</svg>
