<?xml version="1.0" encoding="UTF-8" standalone="no"?>
<!DOCTYPE svg PUBLIC "-//W3C//DTD SVG 1.1//EN"
 "http://www.w3.org/Graphics/SVG/1.1/DTD/svg11.dtd">
<!-- Generated by graphviz version 2.38.0 (20140413.2041)
 -->
<!-- Title: Binder flow diagram Pages: 1 -->
<svg width="302pt" height="412pt"
 viewBox="0.00 0.00 302.04 412.00" xmlns="http://www.w3.org/2000/svg" xmlns:xlink="http://www.w3.org/1999/xlink">
<g id="graph0" class="graph" transform="scale(1 1) rotate(0) translate(-4 416)">
<title>Binder flow diagram</title>
<polygon fill="white" stroke="none" points="4,-4 4,-416 306.042,-416 306.042,-4 4,-4"/>
<g id="clust1" class="cluster"><title>cluster0</title>
<polygon fill="none" stroke="black" points="8,-8 8,-60 236,-60 236,-8 8,-8"/>
</g>
<!-- jhub -->
<g id="node1" class="node"><title>jhub</title>
<polygon fill="#7bbeca" stroke="none" points="104,-52 16,-52 16,-16 104,-16 104,-52"/>
<text text-anchor="middle" x="60" y="-30.8493" font-family="Arial" font-size="14.00">JupyterHub</text>
</g>
<!-- gcr -->
<g id="node2" class="node"><title>gcr</title>
<polygon fill="#7bbeca" stroke="none" points="227.977,-52 122.023,-52 122.023,-16 227.977,-16 227.977,-52"/>
<text text-anchor="middle" x="175" y="-30.8493" font-family="Arial" font-size="14.00">gcr.io / Docker</text>
</g>
<!-- bhub -->
<g id="node3" class="node"><title>bhub</title>
<polygon fill="#ff6347" stroke="none" points="129.762,-322 44.2379,-322 44.2379,-286 129.762,-286 129.762,-322"/>
<text text-anchor="middle" x="87" y="-300.849" font-family="Arial" font-size="14.00">BuilderHub</text>
</g>
<!-- bhub&#45;&gt;jhub -->
<g id="edge1" class="edge"><title>bhub&#45;&gt;jhub</title>
<path fill="none" stroke="black" d="M82.543,-285.64C81.237,-280.04 79.915,-273.79 79,-268 67.31,-194.09 62.603,-105.78 60.885,-62.154"/>
<polygon fill="black" stroke="black" points="64.3789,-61.9237 60.509,-52.061 57.3838,-62.1844 64.3789,-61.9237"/>
<text text-anchor="start" x="69.0041" y="-167.975" font-family="Arial" font-style="italic" font-size="9.00">SEND registry information</text>
</g>
<!-- build -->
<g id="node4" class="node"><title>build</title>
<polygon fill="#ff6347" stroke="none" points="208,-232 154,-232 154,-196 208,-196 208,-232"/>
<text text-anchor="middle" x="181" y="-210.849" font-family="Arial" font-size="14.00">Build</text>
</g>
<!-- bhub&#45;&gt;build -->
<g id="edge2" class="edge"><title>bhub&#45;&gt;build</title>
<path fill="none" stroke="black" d="M82.681,-285.72C80.928,-274.54 80.75,-260.23 87.967,-250 100.59,-232.11 123.56,-223.36 143.51,-219.08"/>
<polygon fill="black" stroke="black" points="144.4,-222.475 153.6,-217.22 143.131,-215.591 144.4,-222.475"/>
<text text-anchor="start" x="88.0036" y="-261.8" font-family="Arial" font-style="italic" font-size="9.00">SEND repo name,</text>
<text text-anchor="start" x="88.0036" y="-252.8" font-family="Arial" font-style="italic" font-size="9.00">branch</text>
</g>
<!-- build&#45;&gt;bhub -->
<g id="edge3" class="edge"><title>build&#45;&gt;bhub</title>
<path fill="none" stroke="black" d="M178.03,-232.04C175.29,-243.4 170.2,-258.02 161,-268 154.77,-274.75 146.98,-280.33 138.8,-284.88"/>
<polygon fill="black" stroke="black" points="137.158,-281.788 129.83,-289.44 140.33,-288.028 137.158,-281.788"/>
<text text-anchor="start" x="170.998" y="-257.975" font-family="Arial" font-style="italic" font-size="9.00">SEND image registry information</text>
</g>
<!-- image -->
<g id="node5" class="node"><title>image</title>
<polygon fill="#ff6347" stroke="none" points="230.645,-142 127.355,-142 127.355,-106 230.645,-106 230.645,-142"/>
<text text-anchor="middle" x="179" y="-120.849" font-family="Arial" font-size="14.00">Docker Image</text>
</g>
<!-- build&#45;&gt;image -->
<g id="edge4" class="edge"><title>build&#45;&gt;image</title>
<path fill="none" stroke="black" d="M180.6,-195.61C180.32,-183.24 179.94,-166.37 179.62,-152.22"/>
<polygon fill="black" stroke="black" points="183.115,-151.968 179.39,-142.05 176.117,-152.127 183.115,-151.968"/>
<text text-anchor="start" x="179.998" y="-171.8" font-family="Arial" font-style="italic" font-size="9.00">USE s2i / Dockerfile</text>
<text text-anchor="start" x="179.998" y="-162.8" font-family="Arial" font-style="italic" font-size="9.00">to build image</text>
</g>
<!-- image&#45;&gt;gcr -->
<g id="edge5" class="edge"><title>image&#45;&gt;gcr</title>
<path fill="none" stroke="black" d="M178.21,-105.61C177.65,-93.24 176.88,-76.369 176.24,-62.22"/>
<polygon fill="black" stroke="black" points="179.728,-61.8816 175.78,-52.05 172.736,-62.198 179.728,-61.8816"/>
<text text-anchor="start" x="176.998" y="-81.8" font-family="Arial" font-style="italic" font-size="9.00">SEND image to</text>
<text text-anchor="start" x="176.998" y="-72.8" font-family="Arial" font-style="italic" font-size="9.00">registry</text>
</g>
<!-- user -->
<g id="node6" class="node"><title>user</title>
<polygon fill="#ff6347" stroke="none" points="139,-412 35,-412 35,-376 139,-376 139,-412"/>
<text text-anchor="middle" x="87" y="-390.849" font-family="Arial" font-size="14.00">User Interface</text>
</g>
<!-- user&#45;&gt;bhub -->
<g id="edge6" class="edge"><title>user&#45;&gt;bhub</title>
<path fill="none" stroke="black" d="M87,-375.61C87,-363.24 87,-346.37 87,-332.22"/>
<polygon fill="black" stroke="black" points="90.5001,-332.05 87,-322.05 83.5001,-332.05 90.5001,-332.05"/>
<text text-anchor="start" x="87.0005" y="-351.8" font-family="Arial" font-style="italic" font-size="9.00">SEND repo,</text>
<text text-anchor="start" x="87.0005" y="-342.8" font-family="Arial" font-style="italic" font-size="9.00">branch, file</text>
</g>
</g>
</svg>
