<?xml version="1.0" encoding="UTF-8" standalone="no"?>
<!DOCTYPE svg PUBLIC "-//W3C//DTD SVG 1.1//EN"
 "http://www.w3.org/Graphics/SVG/1.1/DTD/svg11.dtd">
<!-- Generated by graphviz version 2.38.0 (20140413.2041)
 -->
<!-- Title: Binder flow diagram Pages: 1 -->
<svg width="205pt" height="208pt"
 viewBox="0.00 0.00 205.01 208.10" xmlns="http://www.w3.org/2000/svg" xmlns:xlink="http://www.w3.org/1999/xlink">
<g id="graph0" class="graph" transform="scale(1 1) rotate(0) translate(4.204 204.1)">
<title>Binder flow diagram</title>
<polygon fill="white" stroke="none" points="-4.204,4 -4.204,-204.1 200.806,-204.1 200.806,4 -4.204,4"/>
<g id="clust1" class="cluster"><title>cluster1</title>
<polygon fill="none" stroke="black" points="0,-0 0,-200.1 196.8,-200.1 196.8,-0 0,-0"/>
<text text-anchor="middle" x="98.4" y="-184.9" font-family="Arial" font-size="14.00">x</text>
</g>
<g id="clust2" class="cluster"><title>cluster0</title>
<polygon fill="none" stroke="black" points="60.796,-8 60.796,-84.099 130.8,-84.099 130.8,-8 60.796,-8"/>
<text text-anchor="middle" x="95.796" y="-68.8983" font-family="Arial" font-size="14.00">jhub</text>
</g>
<!-- gcr -->
<g id="node1" class="node"><title>gcr</title>
<polygon fill="#7bbeca" stroke="none" points="122.796,-52 68.796,-52 68.796,-16 122.796,-16 122.796,-52"/>
<text text-anchor="start" x="81.4552" y="-35.9" font-family="Arial" font-size="12.00">gcr.io</text>
<text text-anchor="start" x="81.5423" y="-26.3" font-family="Arial" font-style="italic" font-size="9.00">Docker</text>
</g>
<!-- jhub -->
<g id="node2" class="node"><title>jhub</title>
<polygon fill="#7bbeca" stroke="none" points="87.796,-128.1 -0.204,-128.1 -0.204,-92.1 87.796,-92.1 87.796,-128.1"/>
<text text-anchor="middle" x="43.796" y="-106.949" font-family="Arial" font-size="14.00">JupyterHub</text>
</g>
<!-- bhub -->
<g id="node3" class="node"><title>bhub</title>
<defs>
<linearGradient id="l_0" gradientUnits="userSpaceOnUse" x1="87.796" y1="-200.1" x2="87.796" y2="-164.1" >
<stop offset="0" style="stop-color:#ff6347;stop-opacity:1.;"/>
<stop offset="1" style="stop-color:#7bbeca;stop-opacity:1.;"/>
</linearGradient>
</defs>
<polygon fill="url(#l_0)" stroke="none" points="130.558,-200.1 45.0339,-200.1 45.0339,-164.1 130.558,-164.1 130.558,-200.1"/>
<text text-anchor="middle" x="87.796" y="-178.949" font-family="Arial" font-size="14.00">BuilderHub</text>
</g>
<!-- bhub&#45;&gt;jhub -->
<g id="edge1" class="edge"><title>bhub&#45;&gt;jhub</title>
<path fill="none" stroke="black" d="M76.92,-163.8C71.805,-155.66 65.601,-145.79 59.951,-136.8"/>
<polygon fill="black" stroke="black" points="62.8315,-134.806 54.548,-128.2 56.9042,-138.53 62.8315,-134.806"/>
</g>
<!-- build -->
<g id="node4" class="node"><title>build</title>
<polygon fill="#ff6347" stroke="none" points="159.8,-128.1 105.8,-128.1 105.8,-92.1 159.8,-92.1 159.8,-128.1"/>
<text text-anchor="middle" x="132.8" y="-106.949" font-family="Arial" font-size="14.00">Build</text>
</g>
<!-- bhub&#45;&gt;build -->
<g id="edge2" class="edge"><title>bhub&#45;&gt;build</title>
<path fill="none" stroke="black" d="M98.92,-163.8C104.15,-155.66 110.5,-145.79 116.27,-136.8"/>
<polygon fill="black" stroke="black" points="119.335,-138.504 121.8,-128.2 113.447,-134.718 119.335,-138.504"/>
</g>
<!-- build&#45;&gt;gcr -->
<g id="edge3" class="edge"><title>build&#45;&gt;gcr</title>
<path fill="none" stroke="black" d="M124.21,-91.913C119.64,-82.748 113.91,-71.28 108.8,-61.045"/>
<polygon fill="black" stroke="black" points="111.929,-59.4761 104.33,-52.093 105.666,-62.6033 111.929,-59.4761"/>
</g>
<!-- s2i -->
<g id="node5" class="node"><title>s2i</title>
<polygon fill="#ff6347" stroke="none" points="196.812,-52 140.788,-52 140.788,-16 196.812,-16 196.812,-52"/>
<text text-anchor="start" x="161.13" y="-35.9" font-family="Arial" font-size="12.00">s2i</text>
<text text-anchor="start" x="148.794" y="-26.3" font-family="Arial" font-style="italic" font-size="9.00">Dockerfile</text>
</g>
<!-- build&#45;&gt;s2i -->
<g id="edge4" class="edge"><title>build&#45;&gt;s2i</title>
<path fill="none" stroke="black" d="M141.15,-91.913C145.55,-82.841 151.06,-71.514 155.99,-61.358"/>
<polygon fill="black" stroke="black" points="159.269,-62.6173 160.49,-52.093 152.973,-59.559 159.269,-62.6173"/>
</g>
</g>
</svg>
