<?xml version="1.0" encoding="utf-8"?>
<!-- Generator: Adobe Illustrator 19.2.1, SVG Export Plug-In . SVG Version: 6.00 Build 0)  -->
<svg version="1.1" id="Layer_1" xmlns:figma="http://www.figma.com/figma/ns"
	 xmlns="http://www.w3.org/2000/svg" xmlns:xlink="http://www.w3.org/1999/xlink" x="0px" y="0px" viewBox="0 0 44 51"
	 style="enable-background:new 0 0 44 51;" xml:space="preserve">
<style type="text/css">
	.st0{fill:#767677;}
	.st1{fill:#F37726;}
	.st2{fill:#9E9E9E;}
	.st3{fill:#616262;}
</style>
<title>Group.svg</title>
<desc>Created using Figma 0.90</desc>
<path id="path7_fill" class="st0" d="M39.5,3.5c0,0.6-0.1,1.2-0.4,1.7c-0.3,0.5-0.8,0.9-1.3,1.2c-0.5,0.3-1.1,0.4-1.7,0.3
	c-0.6-0.1-1.1-0.3-1.6-0.7C34,5.6,33.7,5,33.6,4.4c-0.1-0.6-0.1-1.2,0.1-1.8s0.6-1.1,1.1-1.4c0.5-0.4,1.1-0.6,1.7-0.6
	c0.4,0,0.8,0,1.2,0.2c0.4,0.1,0.7,0.3,1,0.6c0.3,0.3,0.5,0.6,0.7,0.9S39.5,3.1,39.5,3.5L39.5,3.5z"/>
<path id="path8_fill" class="st1" d="M21.9,38.4c-8,0-15.1-2.9-18.7-7.1c1.4,3.8,4,7.1,7.3,9.4c3.3,2.3,7.3,3.6,11.4,3.6
	c4.1,0,8-1.2,11.4-3.6c3.3-2.3,5.9-5.6,7.3-9.4C37,35.5,30,38.4,21.9,38.4z"/>
<path id="path9_fill_1_" class="st1" d="M21.9,10.8c8,0,15.1,2.9,18.7,7.1c-1.4-3.8-4-7.1-7.3-9.4C30,6.1,26,4.9,21.9,4.9
	c-4.1,0-8,1.2-11.4,3.6c-3.3,2.3-5.9,5.6-7.3,9.4C6.9,13.6,13.9,10.8,21.9,10.8z"/>
<path id="path10_fill_1_" class="st2" d="M10.9,46.7c0,0.8-0.1,1.5-0.5,2.2C10,49.5,9.4,50,8.7,50.3c-0.7,0.3-1.4,0.4-2.2,0.3
	c-0.7-0.1-1.4-0.4-2-0.9c-0.6-0.5-1-1.2-1.1-1.9c-0.2-0.7-0.1-1.5,0.1-2.2c0.3-0.7,0.7-1.3,1.3-1.8c0.6-0.4,1.3-0.7,2.1-0.7
	c0.5,0,1,0,1.5,0.2c0.5,0.2,0.9,0.4,1.3,0.8s0.7,0.7,0.9,1.2C10.7,45.7,10.8,46.2,10.9,46.7L10.9,46.7z"/>
<path id="path11_fill_1_" class="st3" d="M4.1,9.8c-0.4,0-0.9-0.1-1.2-0.3c-0.4-0.2-0.7-0.6-0.8-1C1.9,8.1,1.8,7.7,1.9,7.3
	s0.3-0.8,0.6-1.1c0.3-0.3,0.7-0.5,1.1-0.6C4,5.4,4.4,5.4,4.8,5.6c0.4,0.2,0.8,0.4,1,0.8c0.3,0.3,0.4,0.8,0.4,1.2
	c0,0.6-0.2,1.2-0.6,1.6C5.3,9.5,4.7,9.8,4.1,9.8z"/>
</svg>
